<svg xmlns="http://www.w3.org/2000/svg" viewBox="0 0 1200 675" width="1200" height="675"><defs><path id="g0" d="M228 0 25 540H137L299 63H283L444 540H557L354 0Z"/><path id="g1" d="M79 0V540H181V0ZM130 623Q97 623 74 646Q52 668 52 701Q52 735 74 757Q97 779 130 779Q164 779 186 757Q208 735 208 701Q208 668 186 646Q164 623 130 623Z"/><path id="g2" d="M204 0Q165 0 138 23Q112 47 112 85V459H28V540H112V651L214 674V540H319V459H214V108Q214 92 219 86Q223 81 239 81H321V0Z"/><path id="g3" d="M305 -12Q227 -12 169 22Q111 57 79 120Q46 184 46 270Q46 356 78 420Q111 483 168 518Q226 552 302 552Q346 552 389 539Q433 525 470 491Q506 457 528 398Q551 338 551 247H112V320H462L440 290Q437 356 418 396Q398 437 368 455Q337 473 300 473Q254 473 222 449Q190 425 173 379Q156 334 156 269Q156 174 194 121Q232 69 305 69Q355 69 390 94Q425 120 442 170L539 140Q520 90 486 57Q452 23 405 5Q359 -12 305 -12Z"/><path id="g4" d="M270 -12Q211 -12 162 7Q112 25 79 64Q46 103 36 163L137 183Q142 124 177 96Q212 67 268 67Q322 67 353 93Q384 119 384 156Q384 188 362 207Q339 227 294 235L233 246Q206 251 176 260Q147 269 121 284Q95 300 79 327Q63 353 63 394Q63 447 91 482Q119 517 166 535Q213 552 269 552Q328 552 373 534Q418 516 447 483Q475 449 485 401L380 380Q377 407 365 429Q353 450 330 462Q307 474 270 474Q225 474 195 456Q164 437 164 402Q164 380 176 366Q187 351 210 342Q233 332 265 325L329 313Q371 305 408 288Q444 271 466 241Q489 211 489 161Q489 106 461 68Q433 29 384 8Q334 -12 270 -12Z"/><path id="g5" d="M201 -169Q123 -68 83 48Q43 164 43 290Q43 415 83 532Q124 648 201 750H307Q219 634 178 525Q137 415 137 290Q137 163 177 54Q217 -56 307 -169Z"/><path id="g6" d="M79 0V750H181V308L422 540H552L334 336L557 0H439L262 267L181 190V0Z"/><path id="g7" d="M79 0V540H175V449Q195 492 239 522Q282 552 342 552Q396 552 435 523Q475 495 494 441Q521 492 566 522Q610 552 667 552Q746 552 791 496Q836 439 836 337V0H734V333Q734 375 725 406Q717 437 697 454Q677 471 642 471Q602 471 572 448Q542 425 525 382Q508 338 508 278V0H406V333Q406 375 398 406Q389 437 369 454Q349 471 315 471Q275 471 245 448Q214 425 197 382Q180 339 180 278V0Z"/><path id="g8" d="M21 -130 346 794H444L119 -130Z"/><path id="g9" d="M79 0V750H181V413L172 435Q194 487 240 520Q287 552 353 552Q412 552 453 526Q494 500 515 452Q537 403 537 337V0H435V328Q435 395 412 433Q388 471 327 471Q261 471 221 422Q181 374 181 277V0Z"/><path id="g10" d="M21 -169Q110 -56 150 54Q190 163 190 290Q190 415 149 525Q108 634 21 750H126Q204 648 244 532Q284 415 284 290Q284 164 244 48Q204 -68 126 -169Z"/><path id="g11" d="M79 0V540H175V424L171 437Q196 494 244 523Q291 552 342 552Q357 552 371 550Q386 547 399 541L388 449Q359 458 331 458Q312 458 286 451Q261 443 237 423Q212 402 196 363Q180 323 180 258V0Z"/><path id="g12" d="M305 -12Q227 -12 169 22Q111 57 79 120Q46 184 46 270Q46 356 78 420Q111 483 168 518Q226 552 302 552Q346 552 389 539Q433 525 470 491Q506 457 528 398Q551 338 551 247H112V320H462L440 290Q437 356 418 396Q398 437 368 455Q337 473 300 473Q254 473 222 449Q190 425 173 379Q156 334 156 269Q156 174 194 121Q232 69 305 69Q355 69 390 94Q425 120 442 170L539 140Q520 90 486 57Q452 23 405 5Q359 -12 305 -12ZM320 604 257 641 349 813 437 760Z"/><path id="g13" d="M221 -12Q168 -12 127 8Q86 28 63 64Q41 100 41 148Q41 199 70 240Q100 280 161 304Q222 328 315 328H401L392 318V348Q392 410 368 442Q343 474 287 474Q233 474 204 447Q176 419 173 371L63 394Q68 438 97 474Q127 509 176 531Q226 552 293 552Q361 552 404 528Q448 504 469 456Q490 409 490 338V108Q490 92 495 86Q499 81 515 81H544V0H486Q445 0 420 23Q395 47 395 85V120L411 117Q404 96 389 74Q375 51 352 32Q329 12 297 0Q265 -12 221 -12ZM246 66Q286 66 319 86Q353 105 373 146Q393 186 393 250V257H314Q251 257 215 240Q179 224 164 199Q149 175 149 151Q149 129 160 109Q170 90 191 78Q213 66 246 66Z"/><path id="g14" d="M79 0V540H175V417L172 439Q194 488 240 520Q286 552 352 552Q411 552 452 526Q493 500 515 452Q536 403 536 337V0H435V330Q435 394 410 432Q385 471 327 471Q262 471 221 421Q180 370 180 273V0Z"/><path id="g15" d="M302 -12Q223 -12 166 22Q109 57 78 120Q47 183 47 270Q47 357 78 420Q109 483 166 518Q223 552 302 552Q360 552 408 531Q456 509 489 469Q522 428 536 370L436 345Q423 407 388 439Q354 472 301 472Q231 472 193 418Q156 365 156 270Q156 174 193 121Q231 68 301 68Q353 68 388 99Q422 130 436 190L535 165Q524 122 502 89Q480 56 449 34Q419 11 382 -1Q345 -12 302 -12Z"/><path id="g16" d="M261 -12Q195 -12 145 22Q95 56 67 120Q39 183 39 271Q39 358 67 421Q95 484 145 518Q195 552 262 552Q317 552 367 526Q418 499 445 436L434 433V750H536V0H440V111L442 104Q419 45 369 16Q319 -12 261 -12ZM292 69Q332 69 365 90Q398 111 418 156Q438 200 438 269Q438 371 396 421Q353 471 293 471Q229 471 189 418Q149 366 149 268Q149 174 188 122Q227 69 292 69Z"/><path id="g17" d="M169 0Q130 0 103 23Q77 47 77 85V750H179V108Q179 92 184 86Q188 81 204 81H253V0Z"/><path id="g18" d="M52 447V720H158L130 447Z"/><path id="g19" d="M87 -160 54 -112 70 -100Q100 -79 113 -59Q126 -40 126 -14V8L141 -11Q106 -11 83 12Q59 34 59 70Q59 106 83 129Q106 153 141 153Q163 153 183 142Q202 132 215 109Q227 87 227 50Q227 -2 199 -52Q170 -103 115 -141Z"/><path id="g20" d="M184 0V558Q144 522 108 498Q73 474 29 458V561Q53 572 80 588Q106 605 139 636Q171 666 211 720H289V0Z"/><path id="g21" d="M316 -12Q188 -12 117 85Q47 183 47 360Q47 537 117 635Q188 732 316 732Q444 732 515 635Q585 537 585 360Q585 183 515 85Q444 -12 316 -12ZM316 73Q393 73 433 146Q472 219 472 360Q472 501 433 574Q393 647 316 647Q238 647 199 574Q159 501 159 360Q159 219 199 146Q238 73 316 73Z"/><path id="g22" d="M221 -12Q168 -12 127 8Q86 28 63 64Q41 100 41 148Q41 199 70 240Q100 280 161 304Q222 328 315 328H401L392 318V348Q392 410 368 442Q343 474 287 474Q233 474 204 447Q176 419 173 371L63 394Q68 438 97 474Q127 509 176 531Q226 552 293 552Q361 552 404 528Q448 504 469 456Q490 409 490 338V108Q490 92 495 86Q499 81 515 81H544V0H486Q445 0 420 23Q395 47 395 85V120L411 117Q404 96 389 74Q375 51 352 32Q329 12 297 0Q265 -12 221 -12ZM246 66Q286 66 319 86Q353 105 373 146Q393 186 393 250V257H314Q251 257 215 240Q179 224 164 199Q149 175 149 151Q149 129 160 109Q170 90 191 78Q213 66 246 66ZM268 604 151 760 239 813 331 641Z"/><path id="g23" d="M296 -12Q222 -12 168 16Q115 45 84 89Q54 132 48 177L154 205Q157 144 192 108Q227 71 296 71Q343 71 373 92Q404 113 422 148Q439 182 448 223Q456 264 459 304Q462 344 462 376L476 366Q454 315 405 278Q356 241 279 241Q213 241 160 270Q107 300 76 355Q44 410 44 485Q44 561 77 617Q109 672 167 702Q225 732 300 732Q373 732 425 704Q476 677 507 627Q539 577 553 511Q567 445 567 369Q567 295 553 227Q539 159 507 105Q475 51 423 19Q371 -12 296 -12ZM297 324Q365 324 406 369Q448 413 448 490Q448 564 409 606Q370 649 302 649Q233 649 194 605Q156 561 156 485Q156 411 193 367Q231 324 297 324Z"/><path id="g24" d="M305 -12Q240 -12 182 14Q124 40 85 90Q46 140 39 212L149 242Q153 169 192 121Q230 73 303 73Q349 73 384 95Q418 117 437 155Q456 194 456 243Q456 318 414 358Q371 399 306 399Q251 399 219 372Q187 345 171 309L65 319L95 720H522V631H183L165 373L141 378Q169 424 217 454Q265 483 333 483Q401 483 454 453Q506 423 536 369Q566 316 566 246Q566 166 529 108Q493 50 434 19Q374 -12 305 -12Z"/><path id="g25" d="M300 -12Q230 -12 172 14Q113 40 76 91Q39 141 33 213L140 246Q145 167 186 120Q227 73 298 73Q361 73 403 109Q445 146 445 215Q445 243 433 274Q421 304 390 326Q359 347 303 347H214V431H300Q360 431 392 463Q423 494 423 535Q423 581 391 614Q359 647 298 647Q226 647 191 606Q157 566 152 490L45 522Q49 573 81 621Q113 669 170 701Q226 732 303 732Q367 732 418 709Q470 685 500 643Q531 601 531 545Q531 509 516 478Q501 447 471 425Q441 404 393 394Q470 381 514 330Q557 280 557 213Q557 154 536 111Q514 68 477 41Q440 14 394 1Q349 -12 300 -12Z"/><path id="g26" d="M194 0V491Q150 447 111 421Q72 395 24 378V558Q57 570 92 589Q127 608 164 639Q200 670 238 720H372V0Z"/><path id="g27" d="M328 -14Q187 -14 110 84Q34 180 34 360Q34 539 110 636Q187 734 328 734Q470 734 546 636Q622 539 622 360Q622 181 546 84Q470 -14 328 -14ZM328 126Q382 126 410 185Q437 244 437 360Q437 476 410 535Q382 594 328 594Q273 594 246 535Q218 476 218 360Q218 244 246 185Q273 126 328 126Z"/><path id="g28" d="M368 0V217L380 238V602L424 592L142 236L120 295H640V154H20V288L370 720H546V0Z"/><path id="g29" d="M304 -14Q226 -14 168 13Q110 40 75 81Q40 122 32 168L196 211Q200 171 227 145Q254 118 304 118Q340 118 364 135Q388 152 402 179Q416 206 422 239Q428 272 430 305Q432 338 432 366L472 372Q441 310 392 277Q342 244 268 244Q194 244 141 275Q88 307 60 362Q32 416 32 483Q32 560 68 616Q103 672 166 703Q230 734 313 734Q386 734 441 709Q496 685 534 639Q570 592 589 527Q608 461 608 378Q608 308 593 239Q578 170 544 113Q510 56 451 21Q392 -14 304 -14ZM316 373Q364 373 392 404Q418 436 418 488Q418 540 392 571Q364 602 318 602Q269 602 243 570Q217 538 217 486Q217 434 244 403Q270 373 316 373Z"/><path id="g30" d="M36 0V106L293 312Q332 343 355 370Q378 398 389 426Q400 455 400 488Q400 529 387 552Q374 574 353 584Q332 593 306 593Q263 593 241 574Q219 555 210 527Q202 500 200 473L20 522Q29 578 67 627Q106 675 167 704Q229 734 306 734Q354 734 403 721Q452 708 493 682Q534 654 560 612Q586 568 586 508Q586 424 530 353Q474 282 372 218L200 106L179 140H580V0Z"/><path id="g31" d="M158 76 54 180 222 348 54 516 158 620 326 452 493 620 597 516 430 348 597 180 493 76 326 244Z"/><path id="g32" d="M323 -14Q243 -14 177 21Q110 56 71 120Q32 184 32 271Q32 358 70 421Q108 484 174 519Q240 554 323 554Q368 554 415 540Q462 526 502 492Q541 458 565 395Q589 333 589 236H144V328H432L420 304Q416 350 401 380Q387 408 366 422Q344 435 318 435Q282 435 258 414Q235 392 224 355Q213 318 213 270Q213 198 239 156Q264 112 322 112Q356 112 382 131Q408 149 424 188L580 152Q560 92 520 56Q479 20 427 3Q375 -14 323 -14Z"/><path id="g33" d="M66 0V540H236V414L232 437Q258 493 303 523Q347 554 410 554Q475 554 515 524Q554 494 572 442Q590 390 590 324V0H416V314Q416 368 400 396Q384 424 344 424Q293 424 267 378Q242 332 242 234V0Z"/><path id="g34" d="M235 0Q164 0 128 32Q92 65 92 129V415H20V540H92V643L268 686V540H364V415H268V153Q268 136 273 131Q278 125 293 125H376V0Z"/><path id="g35" d="M66 0V540H236V416L229 432Q256 494 301 524Q347 554 404 554Q420 554 437 551Q454 548 471 542L460 396Q425 406 394 406Q366 406 339 396Q312 387 290 365Q268 344 255 306Q242 268 242 210V0Z"/><path id="g36" d="M315 -14Q234 -14 169 14Q103 42 63 94Q22 147 18 222L192 272Q194 198 225 162Q256 126 310 126Q356 126 386 151Q416 176 416 224Q416 248 405 270Q394 293 366 307Q338 322 289 322H243V439H306Q350 439 374 462Q398 484 398 517Q398 548 376 572Q355 594 310 594Q265 594 240 571Q214 548 210 492L41 536Q45 584 80 630Q114 676 176 704Q238 734 324 734Q394 734 452 712Q509 690 543 647Q578 604 578 540Q578 504 564 471Q550 438 518 414Q487 391 432 385Q516 372 558 325Q600 278 600 208Q600 152 576 110Q553 68 512 40Q472 13 421 0Q370 -14 315 -14Z"/><path id="g37" d="M66 0V750H242V346L432 540H625L430 339L634 0H440L314 218L242 144V0Z"/><path id="g38" d="M66 0V540H236V456Q262 504 303 529Q344 554 398 554Q456 554 494 526Q532 499 551 446Q584 504 630 529Q676 554 726 554Q809 554 852 495Q895 436 895 325V0H720V330Q720 354 715 376Q710 397 697 410Q684 424 658 424Q627 424 607 402Q587 380 578 342Q568 305 568 260V0H393V330Q393 354 388 376Q384 398 370 411Q357 424 332 424Q300 424 280 402Q260 380 251 343Q242 306 242 259V0Z"/><path id="g39" d="M8 -130 334 794H497L172 -130Z"/><path id="g40" d="M66 0V750H242V414L233 436Q258 493 303 523Q348 554 410 554Q476 554 515 524Q555 494 573 442Q591 390 591 324V0H416V303Q416 368 402 396Q388 424 346 424Q292 424 267 382Q242 340 242 254V0Z"/><path id="g41" d="M346 -14Q266 -14 196 10Q126 34 78 83Q31 132 18 210L202 248Q206 188 241 160Q276 132 342 132Q388 132 413 143Q438 154 448 171Q458 188 458 206Q458 239 429 258Q400 277 355 285L291 296Q249 304 207 316Q164 330 129 353Q94 376 73 414Q52 452 52 508Q52 579 88 630Q124 680 189 707Q254 734 338 734Q416 734 480 710Q545 687 588 642Q631 596 644 530L465 493Q460 522 449 542Q437 564 413 576Q390 588 348 588Q310 588 286 578Q263 568 252 552Q242 536 242 519Q242 486 278 470Q314 454 370 444L436 431Q489 422 538 398Q588 375 619 332Q650 288 650 218Q650 142 611 90Q572 39 503 13Q434 -14 346 -14Z"/><path id="g42" d="M388 -14Q278 -14 198 32Q118 78 74 163Q30 247 30 360Q30 474 73 558Q116 642 197 688Q277 734 388 734Q516 734 604 670Q692 606 719 489L537 447Q525 512 486 546Q446 580 387 580Q333 580 295 554Q258 527 238 478Q218 428 218 360Q218 292 238 242Q258 192 296 166Q333 140 386 140Q442 140 480 171Q518 202 533 260L718 224Q690 112 602 49Q515 -14 388 -14Z"/><path id="g43" d="M66 0V720H247V434H538V720H718V0H538V280H247V0Z"/><path id="g44" d="M66 0V720H588V566H247V450H532V304H247V154H596V0ZM268 753 212 838 408 994 494 860Z"/><path id="g45" d="M46 0 86 720H379L501 120H484L606 720H899L939 0H763L732 593H734L605 0H380L252 593H254L222 0Z"/><path id="g46" d="M2 0 267 720H506L770 0H576L386 600L196 0ZM192 181V325H578V181Z"/><path id="g47" d="M66 0V720H429Q560 720 624 665Q690 610 690 500Q690 390 618 335Q548 280 404 280H247V0ZM247 418H416Q462 418 486 440Q510 461 510 500Q510 537 486 559Q462 582 412 582H247Z"/><path id="g48" d="M315 -14Q232 -14 168 23Q104 59 68 123Q32 186 32 270Q32 354 68 418Q104 482 168 518Q232 554 316 554Q399 554 464 518Q528 482 564 418Q600 354 600 270Q600 186 563 122Q527 58 463 22Q399 -14 315 -14ZM316 112Q363 112 391 154Q418 197 418 270Q418 343 390 386Q363 428 316 428Q268 428 241 386Q214 343 214 270Q214 197 241 154Q268 112 316 112Z"/><path id="g49" d="M236 -14Q172 -14 132 16Q92 46 74 98Q56 150 56 216V540H232V237Q232 172 253 144Q274 116 314 116Q334 116 356 127Q376 138 391 166Q406 194 406 247V540H580V0H410V126L414 104Q388 47 344 17Q300 -14 236 -14Z"/><path id="g50" d="M418 -195V107L428 100Q399 41 354 14Q309 -14 250 -14Q182 -14 132 20Q82 54 55 118Q28 181 28 272Q28 362 55 424Q82 488 132 520Q182 554 253 554Q316 554 360 526Q405 498 435 435H426V540H593V-195ZM317 116Q349 116 374 134Q398 150 413 185Q427 219 427 270Q427 346 396 385Q365 424 318 424Q270 424 241 382Q212 340 212 268Q212 197 240 157Q268 116 317 116Z"/><path id="g51" d="M66 0V540H242V0ZM154 594Q104 594 74 624Q44 653 44 704Q44 755 74 784Q104 814 154 814Q206 814 235 784Q264 755 264 704Q264 653 235 624Q206 594 154 594Z"/><path id="g52" d="M206 0Q134 0 98 32Q63 65 63 129V750H238V153Q238 136 243 131Q248 125 264 125H300V0Z"/><path id="g53" d="M44 430V720H192L158 430Z"/><path id="g54" d="M225 -13Q174 -13 129 4Q84 21 56 57Q28 93 28 150Q28 212 64 253Q100 293 165 313Q230 333 320 333H390L381 317V349Q381 398 364 420Q348 443 309 443Q272 443 252 423Q232 403 226 364L52 393Q62 438 92 475Q123 512 179 533Q234 554 318 554Q392 554 445 532Q498 510 526 458Q554 404 554 311V153Q554 136 559 130Q564 125 580 125H602V0H524Q456 0 422 33Q388 66 388 129V149L420 136Q414 114 403 88Q391 62 370 40Q348 16 313 2Q278 -13 225 -13ZM278 101Q310 101 334 116Q357 130 370 158Q383 185 383 224V238H328Q280 238 254 226Q228 214 217 196Q207 178 207 161Q207 150 212 136Q218 122 233 112Q248 101 278 101Z"/><path id="g55" d="M322 -14Q233 -14 168 21Q104 56 68 119Q33 183 33 270Q33 358 68 422Q103 485 168 519Q232 554 320 554Q383 554 438 531Q494 509 532 464Q572 420 584 352L420 320Q411 375 385 402Q359 428 320 428Q264 428 240 383Q214 338 214 268Q214 198 239 155Q264 112 320 112Q358 112 384 135Q410 158 424 207L581 181Q572 129 546 92Q520 54 484 32Q447 8 405 -2Q364 -14 322 -14Z"/><path id="g56" d="M288 -14Q226 -14 170 4Q113 20 74 58Q35 94 25 154L180 186Q184 147 208 127Q232 107 281 107Q328 107 348 123Q368 139 368 160Q368 178 352 194Q334 210 289 216L246 222Q216 226 182 234Q148 242 116 257Q86 273 66 302Q46 330 46 376Q46 430 76 470Q104 510 158 532Q210 554 282 554Q343 554 396 536Q448 518 485 484Q521 449 532 397L378 366Q374 382 366 398Q358 414 339 425Q321 436 288 436Q254 436 235 423Q216 410 216 389Q216 372 230 361Q244 350 266 344Q288 338 313 334L365 326Q408 320 448 302Q488 285 514 252Q540 219 540 166Q540 106 506 66Q474 26 416 6Q360 -14 288 -14Z"/><path id="g57" d="M250 -14Q181 -14 131 20Q81 54 54 118Q28 181 28 272Q28 362 55 424Q82 488 132 520Q182 554 252 554Q315 554 360 526Q404 498 434 435H417V750H592V0H426V107L428 100Q398 41 354 14Q308 -14 250 -14ZM316 116Q348 116 373 134Q398 150 412 185Q426 219 426 270Q426 346 396 385Q364 424 318 424Q269 424 240 382Q212 340 212 268Q212 197 240 157Q268 116 316 116Z"/><path id="g58" d="M217 0 12 540H208L326 130H314L432 540H628L423 0Z"/><path id="g59" d="M287 -208Q152 -208 86 -174Q20 -138 20 -66Q20 -20 44 6Q68 32 102 43Q84 57 74 77Q64 96 64 120Q64 151 83 174Q103 198 140 208Q100 234 78 272Q56 312 56 360Q56 418 86 462Q116 505 170 529Q224 554 294 554Q365 554 418 529Q472 505 502 462Q532 418 532 360Q532 304 502 260Q472 217 418 193Q364 168 294 168H262Q218 168 218 146Q218 124 262 124H372Q424 124 463 112Q502 99 527 76Q552 54 565 23Q578 -8 578 -43Q578 -126 510 -168Q442 -208 302 -208ZM292 -102H305Q401 -102 401 -44Q401 -22 384 -8Q368 7 322 7H260Q236 7 214 -6Q193 -18 193 -48Q193 -75 217 -88Q241 -102 292 -102ZM294 276Q330 276 349 298Q369 320 369 360Q369 400 349 423Q330 446 294 446Q259 446 239 423Q219 400 219 360Q219 320 239 298Q259 276 294 276ZM370 467V522Q370 586 406 618Q442 651 514 651H560V526H497Q482 526 477 520Q472 515 472 498V467Z"/><path id="g60" d="M161 -14Q109 -14 78 18Q47 48 47 100Q47 152 78 183Q109 214 161 214Q212 214 244 183Q274 152 274 100Q274 48 244 18Q212 -14 161 -14ZM161 326Q109 326 78 357Q47 388 47 440Q47 492 78 522Q109 554 161 554Q212 554 244 522Q274 492 274 440Q274 388 244 357Q212 326 161 326Z"/><path id="g61" d="M323 -14Q243 -14 177 21Q110 56 71 120Q32 184 32 271Q32 358 70 421Q108 484 174 519Q240 554 323 554Q368 554 415 540Q462 526 502 492Q541 458 565 395Q589 333 589 236H144V328H432L420 304Q416 350 401 380Q387 408 366 422Q344 435 318 435Q282 435 258 414Q235 392 224 355Q213 318 213 270Q213 198 239 156Q264 112 322 112Q356 112 382 131Q408 149 424 188L580 152Q560 92 520 56Q479 20 427 3Q375 -14 323 -14ZM338 592 250 643 345 853 482 766Z"/><path id="g62" d="M79 0V720H552V631H187V427H513V337H187V0Z"/><path id="g63" d="M307 -12Q230 -12 171 24Q112 59 78 123Q45 186 45 270Q45 354 78 417Q112 481 171 517Q230 552 307 552Q385 552 444 517Q503 481 536 417Q570 354 570 270Q570 186 536 123Q503 59 444 23Q385 -12 307 -12ZM308 68Q378 68 419 123Q460 177 460 270Q460 364 419 418Q378 472 307 472Q237 472 196 418Q155 364 155 270Q155 177 196 123Q237 68 308 68Z"/><path id="g64" d="M79 0V540H181V0ZM44 612 -35 650 72 798H187L295 650L216 612L130 743Z"/><path id="g65" d="M88 -160 54 -112 70 -100Q100 -79 114 -59Q127 -40 127 -14V8L141 -11Q106 -11 83 12Q60 34 60 70Q60 106 83 129Q107 153 142 153Q163 153 183 142Q203 132 215 109Q228 87 228 50Q228 -2 200 -52Q171 -103 116 -141ZM147 386Q111 386 87 409Q64 433 64 469Q64 505 87 529Q111 552 147 552Q183 552 206 529Q230 505 230 469Q230 433 206 409Q183 386 147 386Z"/><path id="g66" d="M252 -12Q194 -12 153 14Q112 40 90 89Q69 137 69 203V540H170V212Q170 147 195 108Q219 69 279 69Q322 69 355 91Q387 114 406 159Q425 205 425 276V540H526V0H430V127L433 105Q411 53 365 21Q319 -12 252 -12Z"/><path id="g67" d="M79 -195V540H174V429L172 437Q196 496 246 524Q295 552 353 552Q420 552 470 518Q520 484 547 420Q575 357 575 269Q575 182 547 119Q519 56 469 22Q419 -12 352 -12Q298 -12 247 15Q196 41 169 104L178 107V-195ZM321 69Q385 69 425 122Q465 175 465 272Q465 366 426 418Q387 471 322 471Q282 471 249 450Q216 429 196 385Q176 340 176 271Q176 169 219 119Q261 69 321 69Z"/><path id="g68" d="M147 -12Q111 -12 87 11Q64 35 64 71Q64 107 87 131Q111 154 147 154Q183 154 206 131Q230 107 230 71Q230 35 206 11Q183 -12 147 -12Z"/><path id="g69" d="M22 0 230 280 40 540H156L296 342L431 540H552L353 277L562 0H437L290 209L141 0Z"/><path id="g70" d="M105 0V633Q105 696 135 723Q165 750 234 750H312V669H234Q219 669 212 663Q206 657 206 641V0ZM26 459V540H322V459Z"/></defs><rect width="1200" height="675" fill="#F6F5F1"/><g fill="#0F6B4F" transform="translate(60 52) scale(0.01465 -0.01465)"><use href="#g41" x="0"/><use href="#g42" x="822"/><use href="#g43" x="1705"/><use href="#g44" x="2634"/><use href="#g45" x="3405"/><use href="#g46" x="4534"/></g><g fill="#0B1626" transform="translate(60 96) scale(0.03711 -0.03711)"><use href="#g47" x="0"/><use href="#g48" x="692"/><use href="#g49" x="1303"/><use href="#g35" x="1929"/><use href="#g50" x="2401"/><use href="#g49" x="3040"/><use href="#g48" x="3666"/><use href="#g51" x="4277"/><use href="#g52" x="4742"/><use href="#g53" x="5041"/><use href="#g54" x="5256"/><use href="#g49" x="5865"/><use href="#g34" x="6491"/><use href="#g48" x="6877"/><use href="#g35" x="7488"/><use href="#g48" x="7960"/><use href="#g49" x="8571"/><use href="#g34" x="9197"/><use href="#g32" x="9583"/><use href="#g55" x="10359"/><use href="#g48" x="10948"/><use href="#g33" x="11559"/><use href="#g56" x="12186"/><use href="#g48" x="12736"/><use href="#g38" x="13347"/><use href="#g38" x="14278"/><use href="#g32" x="15209"/><use href="#g57" x="15986"/><use href="#g54" x="16624"/><use href="#g58" x="17232"/><use href="#g54" x="17851"/><use href="#g33" x="18460"/><use href="#g34" x="19086"/><use href="#g54" x="19472"/><use href="#g59" x="20080"/><use href="#g32" x="20662"/><use href="#g60" x="21438"/><use href="#g52" x="21916"/><use href="#g54" x="22215"/></g><g fill="#0B1626" transform="translate(60 142) scale(0.03711 -0.03711)"><use href="#g35" x="0"/><use href="#g61" x="472"/><use href="#g56" x="1072"/><use href="#g51" x="1622"/><use href="#g56" x="1910"/><use href="#g34" x="2460"/><use href="#g54" x="2846"/><use href="#g33" x="3454"/><use href="#g55" x="4081"/><use href="#g32" x="4670"/><use href="#g57" x="5446"/><use href="#g32" x="6084"/><use href="#g52" x="6861"/><use href="#g53" x="7160"/><use href="#g54" x="7375"/><use href="#g51" x="7984"/><use href="#g35" x="8272"/></g><path d="M130 540L1100 540" stroke="#0B1626" stroke-width="3" stroke-linecap="round" fill="none"/><path d="M1087.39 546.09L1100 540L1087.39 533.91" stroke="#0B1626" stroke-width="3" stroke-linecap="round" stroke-linejoin="round" fill="none"/><path d="M130 540L130 200" stroke="#0B1626" stroke-width="3" stroke-linecap="round" fill="none"/><path d="M136.09 212.61L130 200L123.91 212.61" stroke="#0B1626" stroke-width="3" stroke-linecap="round" stroke-linejoin="round" fill="none"/><g fill="#556174" transform="translate(955.16 610) scale(0.01953 -0.01953)"><use href="#g0" x="0"/><use href="#g1" x="581"/><use href="#g2" x="840"/><use href="#g3" x="1200"/><use href="#g4" x="1793"/><use href="#g4" x="2327"/><use href="#g3" x="2868"/><use href="#g5" x="3709"/><use href="#g6" x="4036"/><use href="#g7" x="4616"/><use href="#g8" x="5521"/><use href="#g9" x="5986"/><use href="#g10" x="6577"/></g><g fill="#556174" transform="translate(142 206) scale(0.01953 -0.01953)"><use href="#g11" x="0"/><use href="#g12" x="427"/><use href="#g4" x="1020"/><use href="#g1" x="1554"/><use href="#g4" x="1814"/><use href="#g2" x="2348"/><use href="#g13" x="2707"/><use href="#g14" x="3284"/><use href="#g15" x="3889"/><use href="#g3" x="4462"/><use href="#g16" x="5304"/><use href="#g3" x="5918"/><use href="#g17" x="6759"/><use href="#g18" x="7037"/><use href="#g13" x="7247"/><use href="#g1" x="7824"/><use href="#g11" x="8084"/><use href="#g5" x="8758"/><use href="#g1" x="9086"/><use href="#g14" x="9345"/><use href="#g16" x="9950"/><use href="#g1" x="10564"/><use href="#g15" x="10824"/><use href="#g3" x="11396"/><use href="#g19" x="11990"/><use href="#g20" x="12517"/><use href="#g21" x="12886"/><use href="#g21" x="13517"/><use href="#g22" x="14396"/><use href="#g23" x="15222"/><use href="#g21" x="15836"/><use href="#g6" x="16716"/><use href="#g7" x="17296"/><use href="#g8" x="18200"/><use href="#g9" x="18666"/><use href="#g10" x="19256"/></g><path d="M217.27 540L217.27 550" stroke="#0B1626" stroke-width="3" stroke-linecap="round" fill="none"/><g fill="#0B1626" transform="translate(205.81 574) scale(0.01855 -0.01855)"><use href="#g24" x="0"/><use href="#g21" x="604"/></g><path d="M566.36 540L566.36 550" stroke="#0B1626" stroke-width="3" stroke-linecap="round" fill="none"/><g fill="#0B1626" transform="translate(554.8 574) scale(0.01855 -0.01855)"><use href="#g23" x="0"/><use href="#g21" x="614"/></g><path d="M740.91 540L740.91 550" stroke="#0B1626" stroke-width="3" stroke-linecap="round" fill="none"/><g fill="#0B1626" transform="translate(728.21 574) scale(0.01855 -0.01855)"><use href="#g20" x="0"/><use href="#g20" x="368"/><use href="#g21" x="737"/></g><path d="M915.45 540L915.45 550" stroke="#0B1626" stroke-width="3" stroke-linecap="round" fill="none"/><g fill="#0B1626" transform="translate(900.64 574) scale(0.01855 -0.01855)"><use href="#g20" x="0"/><use href="#g25" x="368"/><use href="#g21" x="966"/></g><path d="M1090 540L1090 550" stroke="#0B1626" stroke-width="3" stroke-linecap="round" fill="none"/><g fill="#0B1626" transform="translate(1075.12 574) scale(0.01855 -0.01855)"><use href="#g20" x="0"/><use href="#g24" x="368"/><use href="#g21" x="972"/></g><path d="M130 519.59C159.09 515.34 246.36 504.28 304.55 494.07C362.73 483.87 435.45 467.92 479.09 458.35C522.73 448.79 537.27 444.32 566.36 436.67C595.45 429.01 624.55 420.93 653.64 412.43C682.73 403.92 711.82 394.99 740.91 385.64C770 376.28 799.09 366.5 828.18 356.3C857.27 346.09 886.36 335.46 915.45 324.4C944.55 313.35 973.64 301.87 1002.73 289.96C1031.82 278.05 1075.45 259.13 1090 252.96" fill="none" stroke="#0B1626" stroke-width="5" stroke-linecap="round" stroke-linejoin="round"/><circle cx="566.36" cy="436.67" r="10" fill="#B8F13C" stroke="#0B1626" stroke-width="3"/><g fill="#0B1626" transform="translate(501.93 416.67) scale(0.02539 -0.02539)"><use href="#g26" x="0"/><use href="#g27" x="439"/><use href="#g27" x="1094"/></g><circle cx="740.91" cy="385.64" r="10" fill="#B8F13C" stroke="#0B1626" stroke-width="3"/><path d="M655.07 355.5Q658.71 352.38 662.35 355.5T669.63 355.5M655.07 360.18Q658.71 357.06 662.35 360.18T669.63 360.18" fill="none" stroke="#0B1626" stroke-width="1.95" stroke-linecap="round" stroke-linejoin="round"/><g fill="#0B1626" transform="translate(671.71 365.64) scale(0.02539 -0.02539)"><use href="#g26" x="197"/><use href="#g28" x="636"/><use href="#g29" x="1296"/></g><circle cx="915.45" cy="324.4" r="10" fill="#B8F13C" stroke="#0B1626" stroke-width="3"/><path d="M825.13 294.26Q828.77 291.14 832.41 294.26T839.69 294.26M825.13 298.94Q828.77 295.82 832.41 298.94T839.69 298.94" fill="none" stroke="#0B1626" stroke-width="1.95" stroke-linecap="round" stroke-linejoin="round"/><g fill="#0B1626" transform="translate(841.77 304.4) scale(0.02539 -0.02539)"><use href="#g30" x="197"/><use href="#g27" x="818"/><use href="#g29" x="1474"/></g><g fill="#0B1626" transform="translate(618.73 271.33) scale(0.02539 -0.02539)"><use href="#g31" x="0"/><use href="#g30" x="632"/><use href="#g32" x="1450"/><use href="#g33" x="2070"/><use href="#g34" x="2717"/><use href="#g35" x="3123"/><use href="#g32" x="3616"/><use href="#g29" x="4433"/><use href="#g27" x="5074"/><use href="#g32" x="5926"/><use href="#g34" x="6547"/><use href="#g26" x="7150"/><use href="#g36" x="7589"/><use href="#g27" x="8218"/><use href="#g37" x="9070"/><use href="#g38" x="9715"/><use href="#g39" x="10666"/><use href="#g40" x="11172"/></g><g fill="#556174" transform="translate(60 640) scale(0.01758 -0.01758)"><use href="#g62" x="0"/><use href="#g63" x="580"/><use href="#g11" x="1196"/><use href="#g15" x="1594"/><use href="#g3" x="2166"/><use href="#g16" x="3008"/><use href="#g3" x="3622"/><use href="#g2" x="4464"/><use href="#g11" x="4822"/><use href="#g13" x="5250"/><use href="#g64" x="5826"/><use href="#g14" x="6085"/><use href="#g12" x="6690"/><use href="#g3" x="7284"/><use href="#g15" x="8125"/><use href="#g11" x="8698"/><use href="#g63" x="9125"/><use href="#g1" x="9740"/><use href="#g4" x="10000"/><use href="#g4" x="10534"/><use href="#g13" x="11068"/><use href="#g14" x="11644"/><use href="#g2" x="12250"/><use href="#g13" x="12856"/><use href="#g0" x="13434"/><use href="#g3" x="14014"/><use href="#g15" x="14608"/><use href="#g17" x="15429"/><use href="#g3" x="15707"/><use href="#g15" x="16548"/><use href="#g13" x="17122"/><use href="#g11" x="17698"/><use href="#g11" x="18126"/><use href="#g12" x="18552"/><use href="#g16" x="19394"/><use href="#g3" x="20008"/><use href="#g17" x="20850"/><use href="#g13" x="21128"/><use href="#g0" x="21952"/><use href="#g1" x="22534"/><use href="#g2" x="22793"/><use href="#g3" x="23152"/><use href="#g4" x="23746"/><use href="#g4" x="24280"/><use href="#g3" x="24820"/><use href="#g65" x="25662"/><use href="#g11" x="26192"/><use href="#g12" x="26618"/><use href="#g4" x="27212"/><use href="#g1" x="27746"/><use href="#g4" x="28006"/><use href="#g2" x="28540"/><use href="#g13" x="28898"/><use href="#g14" x="29476"/><use href="#g15" x="30080"/><use href="#g3" x="30654"/><use href="#g13" x="31495"/><use href="#g66" x="32072"/><use href="#g11" x="32925"/><use href="#g63" x="33352"/><use href="#g66" x="33967"/><use href="#g17" x="34572"/><use href="#g3" x="34850"/><use href="#g7" x="35444"/><use href="#g3" x="36348"/><use href="#g14" x="36942"/><use href="#g2" x="37546"/><use href="#g14" x="38154"/><use href="#g63" x="38758"/><use href="#g14" x="39374"/><use href="#g11" x="40226"/><use href="#g3" x="40654"/><use href="#g67" x="41247"/><use href="#g11" x="41862"/><use href="#g12" x="42288"/><use href="#g4" x="42882"/><use href="#g3" x="43422"/><use href="#g14" x="44016"/><use href="#g2" x="44621"/><use href="#g12" x="44980"/><use href="#g3" x="45574"/><use href="#g68" x="46167"/></g><g transform="translate(1072 622) scale(0.375)"><path fill="#0B1626" d="M10 0H64V54L54 64H0V10Z"/><path fill="#F6F5F1" d="M14 15H35V22H21V28.5H43V35.5H21V42H51V49H14Z"/><circle cx="47.5" cy="18.5" r="3.5" fill="#B8F13C"/></g><g fill="#556174" transform="translate(968.64 640) scale(0.01758 -0.01758)"><use href="#g3" x="0"/><use href="#g0" x="594"/><use href="#g3" x="1174"/><use href="#g69" x="1768"/><use href="#g67" x="2354"/><use href="#g3" x="2968"/><use href="#g11" x="3562"/><use href="#g2" x="3988"/><use href="#g68" x="4348"/><use href="#g70" x="4641"/><use href="#g11" x="4998"/></g></svg>
