<svg xmlns="http://www.w3.org/2000/svg" viewBox="0 0 274.79 64" width="274.79" height="64" role="img" aria-label="EVExpert"><title>EVExpert</title><path fill="#16263B" stroke="#2A3A52" stroke-width="1" d="M10 0H64V54L54 64H0V10Z"/><path fill="#F6F5F1" d="M14 15H35V22H21V28.5H43V35.5H21V42H51V49H14Z"/><circle cx="47.5" cy="18.5" r="3.5" fill="#B8F13C"/><path fill="#F6F5F1" transform="translate(80 47.47) scale(0.02148 -0.02148)" d="M133 0V1440H1177V1133H494V899H1065V608H494V307H1191V0ZM1732.28 0 1247.28 1440H1635.28L1984.28 222H1959.28L2309.28 1440H2697.28L2214.28 0Z"/><path fill="#F6F5F1" transform="translate(139.06 47.47) scale(0.02148 -0.02148)" d="M158.01 0V1440H1125.38V1261.26H373V851.41H1026.28V675.76H373V178.74H1139.38V0ZM1244.15 0 1660.41 559.81 1280.03 1080H1511.92L1790.81 683.31L2061.18 1080H2303.34L1906.3 554.01L2323.66 0H2073.05L1778.91 417.53L1481.28 0ZM2517.53 -390V1080H2709.36V857.32L2704.75 873.13Q2752.04 991.32 2851.62 1047.95Q2951.2 1104.58 3066.59 1104.58Q3199.75 1104.58 3299.65 1035.97Q3399.56 967.35 3454.98 840.26Q3510.4 713.16 3510.4 538.61Q3510.4 364.45 3454.48 237.95Q3398.56 111.45 3298.36 43.44Q3198.17 -24.58 3065.24 -24.58Q2955.56 -24.58 2854.46 29.1Q2753.36 82.77 2699.01 208.39L2717.49 214.84V-390ZM3002.99 138.62Q3130.03 138.62 3210.33 243.9Q3290.63 349.18 3290.63 543.39Q3290.63 732.37 3213.04 836.97Q3135.45 941.57 3004.99 941.57Q2925.06 941.57 2858.62 899.41Q2792.18 857.24 2752.79 769.08Q2713.4 680.91 2713.4 542.61Q2713.4 338.38 2797.98 238.5Q2882.57 138.62 3002.99 138.62ZM4188.98 -24.58Q4033.82 -24.58 3917.45 44.52Q3801.09 113.61 3736.61 240.31Q3672.13 367 3672.13 539.58Q3672.13 712.58 3736.22 839.48Q3800.31 966.39 3915.37 1035.48Q4030.43 1104.58 4183.33 1104.58Q4270.3 1104.58 4358.15 1077.18Q4446.01 1049.77 4518.96 981.98Q4591.91 914.19 4636.28 795.34Q4680.65 676.49 4680.65 494.59H3802.75V639.87H4502.36L4458.61 579.57Q4453.03 712.29 4414.45 792.88Q4375.87 873.46 4314.81 909.64Q4253.76 945.82 4178.98 945.82Q4088.24 945.82 4023.59 897.58Q3958.94 849.34 3924.84 758.3Q3890.74 667.27 3890.74 538.39Q3890.74 347.79 3967.24 242.44Q4043.75 137.08 4188.4 137.08Q4289.86 137.08 4360.01 188.5Q4430.16 239.92 4464.19 339.09L4657.62 279.61Q4618.81 180.97 4550.62 113.21Q4482.43 45.45 4390.12 10.44Q4297.82 -24.58 4188.98 -24.58ZM4913.05 0V1080H5106.43V847.13L5098.69 874.68Q5147.66 989 5243.19 1046.79Q5338.72 1104.58 5440.62 1104.58Q5470.2 1104.58 5498.96 1099.58Q5527.72 1094.58 5553.65 1082.58L5531.46 898.48Q5473.75 915.86 5418.2 915.86Q5379.95 915.86 5328.77 901.4Q5277.6 886.93 5229.16 845.85Q5180.72 804.77 5148.58 725.54Q5116.43 646.32 5116.43 516.8V0ZM6008.5 0Q5929.22 0 5876.77 46.85Q5824.33 93.7 5824.33 170.88V918.73H5655.74V1080H5824.33V1302.13L6027.71 1347.99V1080H6237.65V918.73H6027.71V216.46Q6027.71 183.35 6037.21 172.31Q6046.71 161.27 6077.71 161.27H6242.71V0Z"/></svg>
